<svg xmlns="http://www.w3.org/2000/svg" width="108" height="26" viewBox="0 0 108 26">
    <g fill="none" fill-rule="evenodd">
        <g fill="#FFF">
            <g>
                <g>
                    <g>
                        <g>
                            <path d="M.003 14.51c-.027 1.12.138 2.237.488 3.304.315 1.015.818 1.965 1.485 2.802 1.445 1.703 3.342 2.488 5.596 2.407.916-.037 1.816-.255 2.644-.64 1.046-.484 1.96-1.206 2.664-2.104.866-1.007 1.521-2.17 1.929-3.424.125-.304 0-.652-.29-.816-.313-.208-.69-.303-1.065-.27-.281-.003-.534.167-.63.425-.216.528-.528 1.013-.92 1.432-.858.903-2.02 1.475-3.272 1.61-.84.145-1.703-.003-2.442-.417-.925-.539-1.68-1.317-2.183-2.248-.784-1.45-.935-3.003-.754-4.602.115-.87.405-1.709.852-2.47 1.3-2.347 3.212-4.317 5.542-5.711.351-.207.69-.432 1.016-.675.502-.385.77-.993.708-1.613.003-.2-.077-.394-.222-.536-.145-.142-.342-.222-.547-.22-.436-.01-.867.097-1.245.31-2.046.992-3.738 2.428-5.32 4.015-1.014 1.014-1.74 2.245-2.43 3.488C.579 10.382.027 12.427.003 14.51zM28.225 18.417c-.017-.166-.021-.335-.053-.499-.229-1.213-.448-2.43-.703-3.639-.165-.862-.43-1.703-.792-2.505-.55-1.171-2.112-1.932-3.523-.758-.448.365-.868.762-1.257 1.187-.886.986-1.736 2.005-2.603 3.007-.212.238-.426.495-.66.713-.233.219-.578.21-.628-.209-.09-.73-.205-1.454-.28-2.183-.124-1.342-.176-2.69-.154-4.038 0-1.613.073-3.225.227-4.833.094-.95.2-1.9.31-2.85.05-.442.13-.88.183-1.321.03-.118.002-.242-.076-.336-.078-.093-.196-.145-.319-.14-.185-.025-.374-.015-.556.03-.963.281-1.762.95-2.2 1.842-.044.082-.07.17-.078.262-.06.845-.14 1.693-.168 2.544-.108 2.934.017 5.873.373 8.788.144 1.268.37 2.525.679 3.765.142.553.313 1.1.481 1.641.169.542.547.658 1.012.368.248-.152.473-.34.667-.556.351-.396.667-.821.992-1.24.722-.916 1.399-1.857 2.254-2.657.445-.418.92-.787 1.55-.898.538-.095.855.071 1.048.572.346.944.618 1.913.814 2.898.147.66.286 1.323.482 1.967.062.275.25.506.507.628.258.121.558.12.815-.004.378-.153.744-.333 1.095-.539.374-.195.595-.59.561-1.007zM57.157 15.981c-.003-.042-.003-.085 0-.128.152-1.12.26-2.249.468-3.36.467-2.445 1.153-4.845 2.05-7.17.42-1.103.912-2.176 1.373-3.263.169-.395.02-.623-.399-.566-.959.122-1.874.466-2.671 1.005-.274.181-.48.447-.585.755-.692 2.03-1.23 4.108-1.61 6.216-.207 1.088-.388 2.182-.557 3.277-.152.988-.275 1.98-.4 2.97-.107.839-.199 1.677-.293 2.515-.104.924-.2 1.848-.3 2.774-.025.13.044.262.167.318.136.065.284.102.435.11.413-.019.811-.155 1.146-.393.313-.206.509-.544.531-.914.078-.74.157-1.482.256-2.22.036-.287.123-.568.198-.893l.143.152c.634.736 1.262 1.48 1.904 2.208 1.006 1.184 2.096 2.295 3.263 3.325.363.311.744.603 1.14.873.441.302.796.257 1.17-.109.417-.428.688-.973.777-1.56.04-.222-.07-.444-.272-.55-.568-.38-1.116-.789-1.642-1.224-1.06-.96-2.014-2.029-2.843-3.188-.22-.293-.43-.59-.654-.898l.415-.316c.93-.671 1.79-1.43 2.57-2.265.393-.386.669-.872.797-1.403.126-.699-.224-1.135-.941-1.105-.802.035-1.56.375-2.11.95-.072.087-.136.18-.19.278.277.154.338.28.27.556-.099.351-.277.676-.521.95-.56.637-1.222 1.181-1.958 1.612-.36.23-.724.441-1.127.681z" transform="translate(-134 -9) translate(-126.143 -.036) translate(126.715 .036) translate(134.257 9) translate(0 .743)"/>
                            <path d="M80.971 17.4c-.067-.794-.128-1.621-.216-2.447-.1-1.022-.317-2.027-.646-2.992-.06-.17-.147-.329-.256-.469-.345-.429-.793-.456-1.261-.307-.88.29-1.704.749-2.431 1.354-.658.539-1.268 1.137-1.91 1.701-.087.078-.2.116-.314.105-.063-.015-.13-.177-.137-.277-.052-.69-.07-1.381-.133-2.07-.041-.396-.11-.789-.208-1.174-.016-.14-.088-.264-.197-.342-.11-.079-.245-.102-.371-.065-.207.047-.4.145-.564.287-.881.773-1.62 1.698-2.399 2.581-.636.726-1.296 1.431-1.95 2.137-.132.134-.276.253-.43.357-.067.065-.163.087-.25.056-.086-.031-.15-.11-.167-.206-.037-.12-.05-.248-.037-.374.068-.596.133-1.192.221-1.783.089-.591.233-1.247.32-1.86.074-.476-.103-.723-.555-.748-.417-.025-.837 0-1.254 0-.375-.025-.712.24-.802.63-.158.567-.303 1.143-.41 1.721-.165.923-.294 1.853-.445 2.778-.08.499-.184.975-.259 1.464-.062.275-.005.565.156.79.16.224.407.359.672.367.726.078 1.452-.153 2.02-.644.467-.404.933-.812 1.376-1.246.661-.659 1.295-1.344 1.948-2.01.127-.129.269-.24.422-.33.06-.036.134-.041.199-.014.065.027.115.083.137.154.036.079.06.163.07.25.058 1.025.12 2.047.167 3.072-.012.214.073.42.228.556.156.135.362.181.555.124.344-.064.658-.248.893-.523.273-.31.532-.631.788-.955.534-.671 1.042-1.367 1.596-2.013.468-.577 1.073-1.008 1.75-1.246.467-.152.68-.04.819.459.013.04.024.08.033.122.102.725.216 1.448.307 2.174s.156 1.496.233 2.26c.028.27.235.481.49.498.637.06 1.276-.098 1.825-.451.183-.107.307-.3.333-.521.023-.295.023-.591.044-.93zM90.361 16.217c.01.015.017.03.023.047.397 1.236.463 2.562.19 3.834-.27 1.148-.843 2.078-1.873 2.652-.659.347-1.395.502-2.132.45-.146-.02-.292.029-.4.131-.108.103-.168.25-.162.402-.002.32.216.597.52.657.387.06.778.1 1.17.119.709.037 1.415-.118 2.048-.45.974-.526 1.611-1.375 2.084-2.372.569-1.197.756-2.484.796-3.803.031-.948-.04-1.896-.213-2.827-.138-.73-.323-1.438-.499-2.153-.022-.114-.1-.206-.206-.242-.106-.037-.222-.011-.304.067-.058.048-.11.103-.155.165-.468.594-.899 1.216-1.383 1.783-.749.889-1.732 1.528-2.828 1.84-.312.103-.645.115-.962.034-.616-.18-1.1-.876-1.152-1.613-.01-.48.088-.957.283-1.392.22-.664.629-1.243 1.17-1.662.724-.523 1.548-.62 2.389-.52.744.09 1.481.243 2.219.396.417.132.862-.09 1.023-.51.06-.13.124-.244.182-.383.28-.576.495-1.183.642-1.81.093-.486-.059-.73-.527-.769-.468-.039-.936-.07-1.404-.087-1.289-.09-2.583.026-3.837.343-1.14.323-2.124.905-2.81 1.946-.842 1.282-1.198 2.842-1 4.38.065.679.348 1.316.804 1.807.702.75 1.601.9 2.554.83.746-.083 1.477-.28 2.168-.586.529-.222 1.046-.468 1.582-.704zM37.888 13.249c.005.058.013.116.024.173.214.936.532 1.846.948 2.714.36.833.826 1.618 1.387 2.334.152.204.361.36.602.446.45.147.825-.018 1.186-.277 1.027-.76 1.98-1.615 2.844-2.552.38-.42.69-.394 1.055.04.574.689 1.157 1.365 1.76 2.026.31.345.66.653 1.043.917.28.21.639.29.983.22.345-.07.643-.281.818-.581 1.107-1.602 2.046-3.31 2.803-5.098.324-.78.58-1.59.853-2.39.056-.156.044-.327-.034-.473-.078-.146-.214-.253-.376-.295-.147-.068-.316-.07-.465-.008-.149.063-.263.185-.315.337-.047.105-.097.207-.138.312-.393 1.011-.777 2.027-1.185 3.035-.227.645-.562 1.249-.99 1.786-.238.287-.454.3-.712.03-.635-.677-1.268-1.354-1.897-2.043-.3-.336-.573-.7-.858-1.048-.284-.347-.474-.35-.823-.13-.038.024-.075.05-.111.08-.576.466-1.164.933-1.726 1.423-.493.427-.948.89-1.439 1.33-.09.108-.224.17-.366.17s-.276-.062-.366-.17c-.126-.116-.23-.252-.309-.403-.182-.374-.35-.754-.498-1.14-.286-.749-.552-1.503-.836-2.252-.075-.233-.316-.375-.56-.33-.12.015-.237.047-.348.094-.604.267-1.163.622-1.66 1.053-.204.162-.314.413-.294.67zM69.084 4.198c.021-.346-.145-.512-.507-.48-.606.049-1.2.186-1.757.407-.22.07-.392.226-.467.426-.105.315-.183.637-.234.963-.037.297.143.437.467.426.063.004.125.004.187 0 .505-.064 1-.186 1.472-.362.22-.075.403-.222.512-.413.184-.297.295-.627.327-.967zM101.262 14.857c-.359.418-.247.96-.046 1.322.026.044.06.082.102.11.038.039.09.058.144.053.053-.005.101-.033.132-.077.22-.255.237-.628.043-.902-.11-.172-.238-.333-.375-.506zM.003 14.51c.023-2.087.573-4.136 1.603-5.965.691-1.243 1.416-2.467 2.441-3.488 1.57-1.575 3.261-3.01 5.307-4.003.378-.213.808-.32 1.244-.31.206-.002.403.078.547.22.145.142.225.335.222.536.062.62-.205 1.228-.708 1.613-.325.243-.664.468-1.015.675-2.329 1.394-4.24 3.364-5.54 5.712-.445.758-.732 1.593-.848 2.46-.18 1.598-.029 3.152.755 4.602.502.931 1.257 1.709 2.182 2.248.738.414 1.602.561 2.44.417 1.253-.136 2.414-.707 3.271-1.61.393-.419.705-.904.92-1.432.096-.258.35-.429.63-.425.376-.033.752.062 1.064.27.292.163.416.511.29.816-.407 1.254-1.062 2.417-1.927 3.424-.705.898-1.617 1.62-2.663 2.104-.83.389-1.73.61-2.649.65-2.26.078-4.149-.717-5.614-2.41-.659-.838-1.155-1.787-1.464-2.8-.35-1.066-.515-2.183-.488-3.304zM28.224 18.406c.04.417-.176.818-.55 1.018-.351.206-.718.387-1.096.54-.257.123-.557.124-.815.003-.258-.122-.445-.353-.508-.628-.196-.644-.335-1.306-.482-1.966-.197-.981-.47-1.946-.815-2.886-.193-.5-.51-.667-1.048-.572-.632.112-1.106.475-1.552.898-.856.8-1.542 1.74-2.256 2.657-.325.418-.64.843-.993 1.24-.193.216-.418.403-.667.555-.465.29-.841.15-1.012-.368-.171-.518-.352-1.087-.482-1.64-.308-1.24-.535-2.497-.68-3.765-.356-2.914-.481-5.852-.373-8.786.029-.85.108-1.698.168-2.543.008-.093.034-.184.077-.266.434-.894 1.229-1.567 2.191-1.855.182-.044.371-.054.557-.028.122-.006.24.045.319.14.078.093.106.217.076.335-.053.441-.133.878-.183 1.32-.111.95-.217 1.9-.311 2.85-.154 1.607-.217 3.22-.227 4.832-.022 1.347.03 2.695.155 4.037.074.729.19 1.453.28 2.182.05.418.402.43.628.21.227-.222.448-.476.66-.713.868-1.002 1.719-2.021 2.605-3.009.39-.425.81-.822 1.258-1.187 1.413-1.173 2.977-.413 3.526.757.362.802.628 1.643.793 2.506.255 1.208.482 2.424.704 3.638.03.159.036.327.053.494z" transform="translate(-134 -9) translate(-126.143 -.036) translate(126.715 .036) translate(134.257 9) translate(0 .743)"/>
                            <path d="M57.157 15.975c.398-.237.767-.45 1.125-.681.736-.425 1.397-.964 1.96-1.595.244-.274.422-.598.52-.95.069-.275 0-.4-.27-.555.055-.098.119-.191.191-.278.55-.574 1.308-.915 2.11-.949.724-.03 1.067.406.941 1.104-.128.53-.404 1.016-.796 1.402-.78.835-1.641 1.594-2.57 2.265l-.416.315c.224.309.434.606.654.898.83 1.156 1.783 2.223 2.843 3.18.526.435 1.074.843 1.642 1.222.202.107.312.329.272.551-.089.586-.36 1.131-.777 1.56-.374.365-.724.41-1.17.109-.396-.27-.777-.562-1.14-.874-1.167-1.03-2.257-2.14-3.263-3.323-.642-.728-1.27-1.471-1.904-2.207l-.143-.152c-.075.325-.162.605-.198.892-.099.739-.178 1.48-.256 2.22-.022.369-.218.707-.53.913-.338.231-.736.36-1.147.373-.151-.007-.299-.044-.435-.11-.123-.055-.192-.186-.166-.317.099-.926.195-1.85.3-2.772.093-.838.185-1.676.291-2.514.126-.99.242-1.982.4-2.97.17-1.093.35-2.188.559-3.275.379-2.107.917-4.184 1.61-6.213.104-.308.31-.574.584-.755.798-.535 1.713-.876 2.671-.995.418-.057.568.171.399.565-.461 1.087-.954 2.16-1.374 3.261-.896 2.326-1.582 4.724-2.049 7.168-.207 1.111-.316 2.239-.468 3.359-.003.043-.003.085 0 .128z" transform="translate(-134 -9) translate(-126.143 -.036) translate(126.715 .036) translate(134.257 9) translate(0 .743)"/>
                            <path d="M80.971 17.401c-.014.337-.016.634-.046.928-.027.221-.15.415-.334.522-.549.353-1.188.51-1.826.451-.255-.017-.462-.227-.49-.499-.084-.748-.15-1.496-.233-2.26-.084-.763-.206-1.449-.308-2.174-.009-.042-.02-.083-.033-.123-.14-.498-.348-.61-.819-.458-.678.238-1.284.67-1.752 1.247-.555.646-1.063 1.341-1.598 2.012-.256.325-.515.646-.788.956-.235.275-.55.46-.893.523-.191.05-.393 0-.545-.133-.15-.135-.234-.338-.223-.548-.046-1.025-.11-2.047-.168-3.072-.01-.087-.034-.171-.07-.25-.022-.07-.072-.127-.137-.154-.065-.027-.138-.022-.199.015-.153.09-.295.2-.422.329-.653.666-1.288 1.352-1.95 2.01-.44.437-.91.846-1.376 1.247-.57.49-1.296.722-2.023.644-.264-.008-.511-.143-.672-.368-.16-.225-.218-.515-.156-.79.075-.498.18-.975.26-1.464.15-.925.279-1.855.445-2.778.107-.579.252-1.155.41-1.721.09-.39.428-.656.803-.631.417 0 .837-.017 1.255 0 .452.025.63.272.555.748-.098.621-.233 1.247-.32 1.86-.086.614-.154 1.188-.221 1.784-.013.126 0 .254.037.374.017.096.08.175.168.206.086.031.182.01.25-.056.153-.103.297-.223.429-.357.655-.706 1.315-1.411 1.952-2.137.78-.883 1.519-1.808 2.4-2.582.161-.138.35-.236.551-.284.124-.037.257-.016.366.058.109.075.183.195.203.331.097.385.167.778.208 1.175.063.688.081 1.38.133 2.07 0 .1.074.25.137.277.114.01.227-.027.315-.105.642-.564 1.253-1.162 1.91-1.701.728-.605 1.553-1.064 2.434-1.354.466-.15.917-.122 1.262.307.109.14.196.298.256.468.33.966.546 1.971.646 2.993.09.846.15 1.674.217 2.464zM90.336 16.209c-.535.243-1.052.486-1.58.696-.69.31-1.42.514-2.166.603-.951.07-1.847-.08-2.55-.83-.452-.495-.729-1.135-.786-1.814-.199-1.538.157-3.098.998-4.38.676-1.03 1.658-1.612 2.806-1.945 1.257-.316 2.554-.43 3.844-.336.468.017.935.041 1.403.088.467.046.62.287.526.768-.148.627-.365 1.233-.645 1.808-.059.129-.122.243-.183.382-.16.42-.605.643-1.022.51-.736-.145-1.473-.306-2.216-.396-.84-.1-1.663 0-2.385.52-.541.42-.949.999-1.17 1.662-.195.435-.291.911-.282 1.392.051.73.535 1.432 1.15 1.612.317.082.65.07.961-.034 1.089-.314 2.065-.953 2.808-1.839.484-.571.922-1.19 1.382-1.783.045-.061.097-.117.155-.165.082-.078.198-.103.303-.067.106.036.185.129.206.242.176.715.36 1.43.498 2.153.171.932.241 1.88.208 2.829-.04 1.318-.233 2.605-.795 3.802-.467.997-1.108 1.846-2.08 2.372-.633.332-1.339.487-2.046.45-.392-.02-.782-.059-1.17-.12-.302-.06-.52-.336-.519-.656-.007-.154.052-.304.161-.409.11-.104.258-.152.405-.131.733.053 1.467-.1 2.123-.443 1.027-.574 1.6-1.503 1.87-2.651.272-1.273.206-2.598-.19-3.834-.006-.02-.013-.038-.022-.056zM37.888 13.25c-.02-.256.088-.507.292-.67.497-.43 1.057-.786 1.66-1.053.112-.047.229-.079.35-.093.243-.046.484.095.559.329.285.75.55 1.504.837 2.254.147.385.316.766.498 1.14.078.151.183.288.309.404.09.108.224.17.366.17s.277-.062.367-.17c.474-.442.948-.904 1.44-1.331.562-.491 1.15-.951 1.726-1.425.036-.029.073-.055.112-.08.341-.22.567-.184.823.131s.557.7.859 1.049c.621.689 1.254 1.366 1.897 2.044.256.27.475.257.712-.03.429-.538.764-1.142.991-1.788.404-1.009.788-2.025 1.186-3.036.04-.105.09-.208.138-.313.052-.151.166-.274.315-.337.15-.063.318-.06.465.008.16.043.293.15.37.294.077.144.09.313.036.467-.273.801-.53 1.612-.854 2.392-.755 1.791-1.692 3.503-2.797 5.108-.175.297-.471.506-.813.576-.342.069-.697-.009-.978-.214-.383-.264-.733-.573-1.043-.918-.607-.66-1.186-1.35-1.765-2.036-.365-.435-.676-.468-1.056-.04-.865.937-1.818 1.792-2.846 2.553-.349.26-.723.425-1.186.278-.24-.086-.45-.24-.602-.442-.562-.717-1.028-1.502-1.388-2.335-.416-.869-.735-1.78-.949-2.717-.013-.055-.023-.112-.03-.168zM32.76 20.8c-2.231.007-4.131-1.619-4.463-3.82-.253-1.411.206-2.855 1.226-3.863.735-.727 1.714-1.156 2.747-1.206.81-.076 1.626.019 2.397.278 1.18.368 2.061 1.354 2.293 2.566.321 1.412.262 2.806-.526 4.08-.647 1.068-1.757 1.774-3.001 1.908-.224.031-.448.038-.672.057zm-1.705-3.905c0 1.412.979 2.389 2.36 2.332.778-.032 1.415-.348 1.73-1.092.36-.775.368-1.666.024-2.448-.368-.86-1.286-1.35-2.208-1.177-1.069.195-1.911 1.274-1.906 2.385zM98.627 8.87c.058-.524.119-1.036.165-1.548.027-.3-.09-.376-.372-.238-.158.077-.309.169-.45.274-.274.238-.683.251-.972.03-.186-.12-.362-.256-.525-.406-.148-.143-.124-.222.07-.288.65-.239 1.257-.572 1.804-.988.124-.093.243-.2.33-.276-.344-.239-.67-.477-.994-.715-.05-.04-.097-.086-.136-.138-.069-.051-.105-.135-.094-.22.011-.084.067-.156.148-.19.117-.064.242-.116.372-.154.075-.029.16-.04.243-.067.73-.238.586-.214.566-.804-.014-.45 0-.902.025-1.352.017-.258.155-.336.418-.293.493.082.94.336 1.259.714.079.1.079.238 0 .338-.074.105-.14.215-.2.329-.038.115-.05.238-.036.359.012.1.085.155.219.126.19-.043.333.07.41.276.11.29.096.312-.191.438-.243.103-.462.205-.686.324-.153.076-.241.238-.219.405 0 .128.086.193.2.126.127-.069.285-.056.398.033.173.1.34.207.516.305.11.06.129.145.058.238-.082.094-.179.174-.287.238-.17.105-.357.181-.53.279-.241.102-.39.343-.37.6.005.166-.002.332-.019.497.088 0 .156.017.226.02.37.036.657.328.684.69-.013.073-.058.138-.124.176-.214.099-.434.187-.657.264-.095.02-.155.111-.136.205.015.126.015.254 0 .38-.032.197.082.389.272.458.372.203.774.348 1.192.428.023.004.047.004.07 0-.11-.402-.243-.797-.32-1.204-.035-.258-.042-.518-.023-.776.01-.211.16-.39.37-.44.486-.189.958-.36 1.439-.53.16-.047.322-.086.486-.116-.154-.175-.3-.356-.435-.545-.144-.188-.179-.436-.092-.655l.447.162c.017 0 .032 0 .036-.017.178-.421.365-.84.528-1.266.038-.1.03-.21-.024-.302-.11-.108-.28-.129-.414-.05-.261.15-.453.394-.537.68-.148.39-.322.77-.52 1.138-.135.21-.306.394-.506.545-.172.128-.393.174-.603.127.017-.07.04-.14.07-.205.093-.162.212-.312.288-.476.102-.238.17-.476.26-.714.05-.129.119-.25.175-.377.041-.09.073-.183.11-.276l-.044-.033c-.048.012-.094.03-.137.052-.15.11-.265.046-.367-.071-.18-.21-.285-.473-.299-.748-.014-.204.061-.276.27-.304.688-.071 1.366-.221 2.018-.448.276-.125.603-.069.82.14.267.19.49.434.653.715.112.207.126.453.037.671-.097.23-.207.455-.329.674-.308.48-.517 1.016-.615 1.576.002.074.029.145.076.202.047.068.11.124.182.164.231.124.229.32.207.536-.023.35-.173.682-.423.933-.168.165-.16.21 0 .398l.35.44c-.355.337-.827.53-1.32.538-.265.017-.533.04-.795.067-.07.01-.137.028-.202.052l-.012.05c.146.074.29.157.44.217.592.203 1.208.332 1.833.383.554.076 1.11.16 1.665.238.072.017.142.038.212.062-.064.084-.14.158-.224.222-.662.385-1.4.628-2.166.714-.288 0-.574-.052-.844-.153-1.254-.392-2.39-1.028-3.52-1.666-.415-.233-.832-.463-1.252-.688-.078-.043-.165-.067-.243-.102-.132-.062-.29-.025-.38.088-.286.29-.59.564-.91.819-.197.127-.412.224-.638.29-.06.024-.148-.019-.223-.03.005-.076.024-.15.055-.218.295-.392.606-.77.893-1.168.222-.289.374-.622.445-.976.029-.153.313-.217.457-.117.11.058.219.121.323.19.079.058.132.143.148.238-.012.286.153.388.396.434.01.012.044.03.08.042zm3.33-.55c.063.21.107.383.17.547.044.107.16.168.275.145.504-.084.888-.489.936-.988 0-.183-.102-.36-.228-.361-.346-.037-.69.078-.941.314-.083.105-.153.22-.207.343h-.005zM100.048 20.737c-.186.39-.375.782-.576 1.198-.464-.05-.932.061-1.325.314-.048.034-.109.045-.166.03-.056-.016-.103-.056-.127-.11-.12-.211-.233-.423-.343-.638-.109-.214-.156-.224-.305-.027-.325.424-.72.715-1.286.675-.03-.003-.061-.008-.091-.015.528-.64 1.047-1.27 1.181-2.138-.531.03-.829-.266-1.06-.692l1.142-.603c.302-.16.45-.513.352-.842-.05.027-.089.06-.134.08-.15.083-.313.145-.481.184-.147.01-.293-.033-.41-.122-.242-.214-.426-.487-.533-.793.522-.119 1.022-.32 1.481-.595.249-.117.283-.207.234-.471 0-.035-.013-.07-.02-.112.145-.075.322-.05.442.062.142.13.351.15.516.052.18-.084.366-.157.556-.216.131-.04.203-.1.203-.25.008-.123.026-.246.055-.366-.216.117-.392.22-.573.312-.452.229-.497.221-.81-.175-.16-.21-.305-.436-.446-.658-.08-.122-.055-.201.104-.249.509-.144 1.013-.316 1.526-.446.153-.03.312 0 .442.085.333.237.64.498.95.777.037.047.054.106.048.165-.008.116-.022.231-.042.346.109 0 .208.018.308.015.099-.002.173.057.168.164 0 .292-.03.447-.302.524-.104.035-.203.082-.296.14-.336.13-.541.474-.496.834.02.32.017.642-.008.962 0 .155-.09.296-.23.361-.417.232-.825.478-1.241.703-.184.068-.314.235-.336.43-.016.085-.039.168-.067.25l.045.047c.4-.249.802-.47 1.196-.717.077-.048.125-.08.221-.03.167.082.348.134.522.202.292.112.36.226.275.53-.084.304-.176.551-.266.825l.003-.002zm-.745-.84c-.4.182-.744.349-1.1.498-.148.06-.183.14-.14.274.069.23.14.461.22.688.013.042.075.102.102.095.225-.024.427-.15.549-.342.124-.267.23-.543.317-.824.031-.128.05-.258.055-.39h-.003zm-.978-1.814c.051-.006.101-.018.15-.035.22-.112.436-.23.652-.349.028-.02.046-.05.05-.084v-.593c-.628.042-.948.438-.85 1.061h-.002z" transform="translate(-134 -9) translate(-126.143 -.036) translate(126.715 .036) translate(134.257 9) translate(0 .743)"/>
                            <path d="M99.543 20.238c.42-.369.943-.504 1.469-.63l.239-.051c0-.028.012-.05.014-.073 0-.114.048-.249 0-.339-.048-.09-.189-.075-.277-.125-.221-.113-.432-.244-.63-.392-.199-.164-.163-.313.078-.402.235-.092.474-.17.717-.237.126-.033.181-.078.17-.217-.022-.327-.044-.365-.376-.381-.183.013-.353-.095-.418-.265-.086-.203-.207-.392-.32-.605.215-.078.4-.161.593-.215.278-.082.523-.247.702-.473.449-.586.843-1.21 1.177-1.866h-.387c.19-.262.45-.467.75-.591.072-.013.146.003.206.045.189.125.368.262.55.397.1.055.166.156.173.27.008.113-.043.223-.136.29l-1.168 1.164c-.045.045-.086.09-.162.172.155.05.275.093.399.126.106.03.213.054.322.07.141.022.24.079.26.237.034.152-.038.307-.176.38-.25.13-.511.237-.764.374-.065.031-.17.076-.172.121-.007.15.006.299.038.445 0 .023.1.033.155.047.174.04.345.09.514.149.157.066.188.194.062.31-.14.134-.301.244-.478.324-.087.017-.163.068-.211.141-.048.074-.064.163-.044.249.021.222 0 .447 0 .685.321-.02.635-.105.922-.253.193-.11.435-.095.613.038.24.137.478.237.731.36.02 0 .06.019.06.028.01.173.004.346-.02.518-.03.132-.154.177-.305.163-.594-.084-1.196-.09-1.791-.019-.139.021-.199.062-.2.213 0 .88-.03 1.762-.042 2.644.01.308-.183.587-.477.69-.141.038-.256.024-.292-.144-.087-.339-.152-.682-.196-1.029-.04-.58-.03-1.16-.043-1.742 0-.062 0-.123-.016-.206-.304.066-.588.116-.867.191-.221.073-.465.004-.614-.172-.117-.126-.217-.265-.325-.398l-.007-.016zM69.084 4.192c-.027.342-.135.674-.317.973-.109.191-.292.338-.513.414-.474.175-.97.297-1.477.361-.062.004-.125.004-.187 0-.333 0-.514-.138-.469-.425.051-.326.13-.648.234-.963.076-.2.25-.357.47-.426.559-.22 1.154-.358 1.762-.406.352-.039.518.123.497.472z" transform="translate(-134 -9) translate(-126.143 -.036) translate(126.715 .036) translate(134.257 9) translate(0 .743)"/>
                            <path d="M101.259 14.857c.131.173.26.334.378.506.195.274.176.647-.044.902-.03.044-.08.072-.133.077-.054.005-.107-.014-.145-.052-.042-.03-.077-.067-.102-.111-.196-.361-.309-.906.046-1.322z" transform="translate(-134 -9) translate(-126.143 -.036) translate(126.715 .036) translate(134.257 9) translate(0 .743)"/>
                        </g>
                    </g>
                </g>
            </g>
        </g>
    </g>
</svg>
