<svg width="121" height="35" viewBox="0 0 121 35" fill="none" xmlns="http://www.w3.org/2000/svg">
    <g clip-path="url(#ct7m2fwu8a)">
        <path d="M120.198 30.867c0 1.852-1.537 3.352-3.438 3.352H4.241c-1.9 0-3.442-1.5-3.442-3.352V4.137C.799 2.286 2.34.78 4.24.78H116.76c1.901 0 3.438 1.506 3.438 3.357l.001 26.73z" fill="#fff"></path>
        <path d="M116.759 34.999H4.241C1.903 34.999 0 33.146 0 30.867V4.137C0 1.858 1.903.003 4.24.003h112.518c2.335 0 4.241 1.855 4.241 4.136v26.729c.002 2.279-1.904 4.132-4.24 4.132z" fill="#A6A6A6"></path>
        <path d="M120.198 30.867c0 1.852-1.537 3.352-3.438 3.352H4.241c-1.9 0-3.442-1.5-3.442-3.352V4.137C.799 2.286 2.34.78 4.24.78H116.76c1.901 0 3.438 1.506 3.438 3.357l.001 26.73z" fill="#000"></path>
        <path d="M27.018 17.316c-.026-2.82 2.367-4.193 2.476-4.257-1.355-1.928-3.455-2.191-4.193-2.212-1.764-.181-3.475 1.03-4.373 1.03-.917 0-2.3-1.013-3.792-.983-1.92.029-3.714 1.113-4.7 2.797-2.031 3.433-.516 8.479 1.431 11.254.974 1.36 2.112 2.876 3.602 2.823 1.457-.058 2.001-.906 3.76-.906 1.742 0 2.253.906 3.773.872 1.564-.024 2.548-1.365 3.488-2.737 1.126-1.557 1.577-3.092 1.596-3.17-.037-.013-3.037-1.131-3.068-4.511zm-2.87-8.295c.784-.957 1.32-2.258 1.172-3.579-1.135.05-2.553.766-3.37 1.702-.723.824-1.369 2.175-1.202 3.446 1.274.093 2.583-.627 3.4-1.569z" fill="#fff"></path>
        <path d="M116.758.001H56.49L80.097 35h36.661c2.336 0 4.241-1.853 4.241-4.135V4.137c.001-2.28-1.905-4.136-4.241-4.136z" fill="url(#a7gu3buueb)"></path>
        <path d="M48.126 27.573h-2.037l-1.116-3.421h-3.877l-1.063 3.42H38.05l3.843-11.646h2.373l3.86 11.647zm-3.489-4.857-1.009-3.04c-.106-.311-.307-1.043-.602-2.195h-.035a90.865 90.865 0 0 1-.567 2.194l-.992 3.041h3.205zm13.351.554c0 1.429-.397 2.558-1.192 3.387-.712.737-1.598 1.106-2.653 1.106-1.14 0-1.96-.397-2.457-1.191v4.406h-1.912v-9.043c0-.897-.024-1.817-.071-2.76h1.681l.107 1.33h.036c.638-1.002 1.605-1.504 2.904-1.504 1.015 0 1.862.391 2.54 1.175.677.785 1.017 1.816 1.017 3.095zm-1.948.069c0-.818-.188-1.492-.566-2.023-.414-.552-.969-.828-1.665-.828-.471 0-.9.153-1.283.457a2.115 2.115 0 0 0-.752 1.202c-.06.23-.09.419-.09.568v1.4c0 .61.193 1.126.577 1.548.383.42.882.631 1.495.631.72 0 1.281-.272 1.682-.812.402-.542.602-1.256.602-2.143zm11.846-.069c0 1.429-.397 2.558-1.193 3.387-.713.737-1.597 1.106-2.653 1.106-1.14 0-1.96-.397-2.457-1.191v4.406H59.67v-9.043c0-.897-.025-1.817-.071-2.76h1.681l.107 1.33h.036c.637-1.002 1.604-1.504 2.904-1.504 1.014 0 1.861.391 2.541 1.175.676.785 1.017 1.816 1.017 3.095zm-1.949.069c0-.818-.189-1.492-.567-2.023-.414-.552-.967-.828-1.663-.828-.472 0-.9.153-1.285.457a2.115 2.115 0 0 0-.752 1.202c-.058.23-.09.419-.09.568v1.4c0 .61.194 1.126.576 1.548.383.42.882.631 1.497.631.721 0 1.282-.272 1.682-.812.402-.542.602-1.256.602-2.143zm13.015.967c0 .991-.355 1.797-1.06 2.42-.777.679-1.861 1.02-3.251 1.02-1.285 0-2.314-.242-3.09-.726l.441-1.555a5.42 5.42 0 0 0 2.762.726c.722 0 1.282-.16 1.682-.475.401-.317.603-.74.603-1.27 0-.473-.168-.87-.496-1.192-.331-.322-.878-.622-1.647-.898-2.09-.76-3.135-1.873-3.135-3.336 0-.956.37-1.738 1.107-2.35.737-.61 1.715-.916 2.93-.916 1.086 0 1.992.184 2.71.553l-.48 1.52c-.677-.356-1.44-.535-2.294-.535-.673 0-1.203.162-1.581.484a1.37 1.37 0 0 0-.48 1.056c0 .46.184.84.55 1.14.317.276.896.576 1.734.898 1.028.404 1.783.875 2.267 1.416.486.54.728 1.215.728 2.02zm6.338-3.731h-2.108v4.077c0 1.037.371 1.555 1.116 1.555.342 0 .625-.028.85-.087l.052 1.417c-.376.137-.873.206-1.487.206-.755 0-1.345-.224-1.771-.674-.424-.45-.637-1.204-.637-2.264V20.57h-1.256v-1.4h1.256v-1.537l1.877-.554v2.091h2.108v1.404zm9.49 2.73c0 1.29-.38 2.35-1.134 3.18-.79.852-1.84 1.278-3.151 1.278-1.265 0-2.27-.409-3.02-1.226-.75-.818-1.124-1.849-1.124-3.092 0-1.302.387-2.368 1.159-3.197.774-.83 1.816-1.244 3.126-1.244 1.263 0 2.278.41 3.045 1.227.734.793 1.099 1.817 1.099 3.074zm-1.983.043c0-.77-.17-1.43-.511-1.982-.401-.667-.975-1-1.719-1-.765 0-1.353.333-1.753 1-.342.552-.513 1.224-.513 2.016 0 .77.17 1.432.513 1.983.414.667.99 1 1.737 1 .731 0 1.304-.34 1.719-1.017.351-.565.528-1.23.528-2zm8.2-2.532a3.4 3.4 0 0 0-.603-.052c-.672 0-1.192.247-1.558.744-.318.437-.477.99-.477 1.658v4.407h-1.912v-5.754c0-.967-.019-1.849-.056-2.643h1.666l.07 1.606h.053c.202-.552.52-.997.955-1.33.426-.301.886-.45 1.382-.45.177 0 .337.012.478.034l.002 1.78zm8.551 2.16c0 .335-.023.617-.07.847h-5.736c.021.83.3 1.465.832 1.902.484.39 1.108.587 1.876.587.849 0 1.624-.132 2.321-.397l.3 1.294c-.815.347-1.776.52-2.885.52-1.334 0-2.382-.384-3.145-1.149-.76-.765-1.141-1.795-1.141-3.084 0-1.265.354-2.32 1.064-3.16.742-.899 1.746-1.348 3.008-1.348 1.241 0 2.18.45 2.817 1.347.505.712.759 1.594.759 2.641zm-1.824-.484c.014-.554-.112-1.03-.371-1.434-.331-.52-.84-.779-1.523-.779-.624 0-1.134.253-1.521.76-.319.404-.508.889-.566 1.452l3.981.001zM43.715 11.758h-1.002l-.548-1.681h-1.906l-.523 1.68h-.974l1.888-5.724h1.166l1.899 5.725zM42 9.37l-.496-1.495c-.052-.153-.148-.509-.296-1.078h-.018c-.06.246-.148.603-.279 1.078l-.487 1.495H42zm6.437-1.74-1.601 4.127h-.914l-1.55-4.128h1.01l.723 2.183c.122.365.226.713.304 1.044h.026c.07-.296.173-.645.304-1.044l.713-2.183h.985zm3.41 4.127-.07-.476h-.026c-.287.383-.705.57-1.236.57-.757 0-1.297-.519-1.297-1.216 0-1.018.905-1.545 2.472-1.545v-.076c0-.544-.296-.816-.88-.816a2.01 2.01 0 0 0-1.104.307l-.191-.603c.392-.238.879-.357 1.453-.357 1.105 0 1.663.568 1.663 1.707v1.52c0 .417.018.74.061.986l-.845-.001zm-.131-2.056c-1.045 0-1.567.247-1.567.832 0 .433.27.645.644.645.479 0 .923-.356.923-.84v-.637zm3.008-2.752a.545.545 0 0 1-.556-.552c0-.314.252-.543.574-.543.322 0 .583.229.574.543 0 .332-.243.552-.592.552zm.488 4.808h-.94V7.63h.94v4.128zm2.61 0h-.94V5.737h.94v6.02zm3.994 0-.07-.476h-.026c-.287.383-.705.57-1.236.57-.756 0-1.296-.519-1.296-1.216 0-1.018.904-1.545 2.471-1.545v-.076c0-.544-.296-.816-.879-.816a2.01 2.01 0 0 0-1.105.307l-.191-.604c.392-.238.878-.357 1.453-.357 1.105 0 1.663.568 1.663 1.707v1.52c0 .417.019.74.06.986h-.844zm-.13-2.056c-1.045 0-1.567.247-1.567.832 0 .433.27.645.643.645.48 0 .923-.356.923-.84v-.637zm4.722 2.15c-.6 0-1.043-.247-1.33-.731h-.02l-.053.637h-.8c.025-.331.034-.706.034-1.113V5.737h.941v2.497h.018c.279-.458.73-.688 1.349-.688 1.018 0 1.732.85 1.732 2.09 0 1.28-.792 2.215-1.871 2.215zm-.191-3.585c-.541 0-1.036.458-1.036 1.095v.722c0 .57.445 1.037 1.02 1.037.704 0 1.122-.56 1.122-1.452 0-.833-.436-1.402-1.106-1.402zm4.392 3.49h-.94v-6.02h.94v6.02zm5.115-1.842h-2.82c.018.781.547 1.222 1.33 1.222.419 0 .802-.068 1.14-.195l.147.637c-.4.17-.87.255-1.418.255-1.324 0-2.107-.816-2.107-2.08 0-1.266.802-2.217 2.001-2.217 1.08 0 1.758.781 1.758 1.962.005.161-.004.305-.03.416zm-.862-.654c0-.637-.33-1.087-.931-1.087-.54 0-.965.458-1.028 1.087h1.96zm6.559 2.59c-1.236 0-2.037-.9-2.037-2.123 0-1.274.818-2.182 2.108-2.182 1.216 0 2.036.857 2.036 2.115 0 1.29-.845 2.19-2.107 2.19zm.036-3.635c-.68 0-1.114.62-1.114 1.486 0 .85.444 1.47 1.105 1.47.66 0 1.104-.663 1.104-1.488 0-.84-.434-1.468-1.095-1.468zm7.124 3.542h-.94v-2.37c0-.73-.287-1.096-.852-1.096-.557 0-.94.467-.94 1.01v2.456h-.94V8.81a20 20 0 0 0-.035-1.18h.827l.044.637h.026c.251-.441.766-.722 1.34-.722.887 0 1.47.662 1.47 1.74v2.473zm6.15-3.44h-1.035v2.005c0 .51.182.764.547.764.166 0 .306-.017.418-.043l.026.697c-.183.068-.428.103-.73.103-.741 0-1.183-.4-1.183-1.444V8.317h-.617V7.63h.617v-.756l.922-.272V7.63h1.034v.688zm4.976 3.44h-.94V9.405c0-.738-.288-1.112-.854-1.112-.486 0-.939.323-.939.977v2.488h-.94V5.737h.94v2.479h.019c.296-.45.722-.671 1.27-.671.896 0 1.444.679 1.444 1.758v2.455zm4.802-1.843h-2.82c.018.781.547 1.222 1.331 1.222.419 0 .801-.068 1.139-.195l.148.637c-.401.17-.871.255-1.419.255-1.324 0-2.107-.816-2.107-2.08 0-1.266.802-2.217 2.001-2.217 1.079 0 1.759.781 1.759 1.962.003.161-.006.305-.032.416zm-.861-.654c0-.637-.331-1.087-.931-1.087-.541 0-.966.458-1.028 1.087h1.959z" fill="#fff"></path>
    </g>
    <defs>
        <linearGradient id="a7gu3buueb" x1="88.746" y1="35.094" x2="88.746" y2="3.547" gradientUnits="userSpaceOnUse">
            <stop stop-color="#1A1A1A" stop-opacity=".1"></stop>
            <stop offset=".123" stop-color="#212121" stop-opacity=".151"></stop>
            <stop offset=".308" stop-color="#353535" stop-opacity=".227"></stop>
            <stop offset=".532" stop-color="#575757" stop-opacity=".318"></stop>
            <stop offset=".783" stop-color="#858585" stop-opacity=".421"></stop>
            <stop offset="1" stop-color="#B3B3B3" stop-opacity=".51"></stop>
        </linearGradient>
        <clipPath id="ct7m2fwu8a">
            <path fill="#fff" d="M0 0h121v35H0z"></path>
        </clipPath>
    </defs>
</svg>